<svg height="512" viewBox="0 0 25 25" width="512" xmlns="http://www.w3.org/2000/svg"><g id="Layer_50" data-name="Layer 50"><path d="m21.41 10.71c-.41-.26-1-.62-1-.86a3.15 3.15 0 0 1 .37-1.4c.34-.85.69-1.72.25-2.36s-1.38-.57-2.28-.5a3 3 0 0 1 -1.34 0 3.38 3.38 0 0 1 -.46-1.34c-.2-.91-.41-1.85-1.16-2.1s-1.42.37-2.09 1c-.38.34-.89.8-1.15.8s-.78-.46-1.16-.8c-.66-.61-1.35-1.23-2.09-1s-.99 1.15-1.19 2.06a3.4 3.4 0 0 1 -.47 1.33 2.82 2.82 0 0 1 -1.34 0c-.89-.08-1.82-.16-2.27.5s-.1 1.51.24 2.36a3.19 3.19 0 0 1 .38 1.4c-.08.24-.64.6-1.05.86-.77.48-1.57 1-1.57 1.8s.8 1.32 1.57 1.81c.41.26 1 .61 1.05.85a3.23 3.23 0 0 1 -.38 1.41c-.34.85-.69 1.72-.24 2.36s1.38.57 2.27.49a3 3 0 0 1 1.34.05 3.47 3.47 0 0 1 .47 1.33c.2.91.41 1.86 1.15 2.11a1.06 1.06 0 0 0 .34.13 3 3 0 0 0 1.75-1c.38-.34.9-.81 1.16-.81s.77.47 1.15.81c.67.6 1.36 1.23 2.09 1s1-1.2 1.16-2.11a3.32 3.32 0 0 1 .46-1.33 3 3 0 0 1 1.34-.05c.9.08 1.82.17 2.28-.49s.09-1.51-.25-2.36a3.19 3.19 0 0 1 -.37-1.41c.07-.24.63-.59 1-.85.78-.49 1.58-1 1.58-1.81s-.76-1.4-1.54-1.88zm-5.18-.79-4.43 5.8a.54.54 0 0 1 -.37.19.48.48 0 0 1 -.36-.15l-2.25-2.32a.5.5 0 0 1 0-.71.49.49 0 0 1 .7 0l1.82 1.9 4.08-5.34a.5.5 0 0 1 .79.61z"/></g></svg>